# xmcd
#
# Track frame offsets: 
#        150
#        14605
#        36819
#        56369
#        78327
#        96729
#        108641
#        131625
#        152592
#        168709
#        185365
#        200294
#
# Disc length: 3084 seconds
#
# Revision: 0
# Processed by: cddbd v1.5.2PL0 Copyright (c) Steve Scherf et al.
# Submitted via: ExactAudioCopy v0.99pb5
#
DISCID=a10c0a0c
DTITLE=ThanX - Momentum
DYEAR=2009
DGENRE=Blues
TTITLE0=i'm on your side
TTITLE1=move on
TTITLE2=honey in the hall
TTITLE3=rainy day
TTITLE4=3:40
TTITLE5=4 winds blow
TTITLE6=autumn sun
TTITLE7=walk on by
TTITLE8=let it be me
TTITLE9=4 knives
TTITLE10=barricades
TTITLE11=have you ever loved a woman 
EXTD=
EXTT0=
EXTT1=
EXTT2=
EXTT3=
EXTT4=
EXTT5=
EXTT6=
EXTT7=
EXTT8=
EXTT9=
EXTT10=
EXTT11=
PLAYORDER=
